<?xml version="1.0" encoding="UTF-8" standalone="no"?>
<svg
   xmlns:dc="http://purl.org/dc/elements/1.1/"
   xmlns:cc="http://creativecommons.org/ns#"
   xmlns:rdf="http://www.w3.org/1999/02/22-rdf-syntax-ns#"
   xmlns:svg="http://www.w3.org/2000/svg"
   xmlns="http://www.w3.org/2000/svg"
   xmlns:sodipodi="http://sodipodi.sourceforge.net/DTD/sodipodi-0.dtd"
   xmlns:inkscape="http://www.inkscape.org/namespaces/inkscape"
   viewBox="0 0 2600 2760.837"
   version="1.1"
   id="svg4"
   sodipodi:docname="flag.svg"
   inkscape:version="0.92.4 (33fec40, 2019-01-16)">
  <metadata
     id="metadata10">
    <rdf:RDF>
      <cc:Work
         rdf:about="">
        <dc:format>image/svg+xml</dc:format>
        <dc:type
           rdf:resource="http://purl.org/dc/dcmitype/StillImage" />
        <dc:title></dc:title>
      </cc:Work>
    </rdf:RDF>
  </metadata>
  <defs
     id="defs8" />
  <sodipodi:namedview
     pagecolor="#ffffff"
     bordercolor="#666666"
     borderopacity="1"
     objecttolerance="10"
     gridtolerance="10"
     guidetolerance="10"
     inkscape:pageopacity="0"
     inkscape:pageshadow="2"
     inkscape:window-width="1920"
     inkscape:window-height="1025"
     id="namedview6"
     showgrid="false"
     inkscape:zoom="0.26760758"
     inkscape:cx="1275.1323"
     inkscape:cy="1169.8462"
     inkscape:window-x="0"
     inkscape:window-y="27"
     inkscape:window-maximized="1"
     inkscape:current-layer="svg4" />
  <path
     d="m 2465,791 c 10,5.33333 17.6667,12.66667 23,22 5.3333,9.33333 8,19.66667 8,31 v 10 c 0,4 -1,7.66667 -3,11 l -454,1271 c -4.6667,11.3333 -11.6667,20.8333 -21,28.5 -9.3333,7.6667 -20.6667,11.5 -34,11.5 -18,0 -30,-3.5 -36,-10.5 -6,-7 -55.5,-35.1667 -148.5,-84.5 -93,-49.3333 -203.3333,-88.1667 -331,-116.5 -127.6667,-28.3333 -282,-42.5 -463,-42.5 -181,0 -314.66667,-11.3333 -401,-34 -86.33333,-22.6667 -150.83333,-50 -193.5,-82 l -153,342 c -7.33333,15.3333 -17.66667,27.1667 -31,35.5 -13.33333,8.3333 -27.66667,12.5 -43,12.5 -25.33333,0 -45.16667,-8.1667 -59.5,-24.5 -14.33333,-16.3333 -21.5,-35.1667 -21.5,-56.5 0,-5.3333 0.33333,-10.6667 1,-16 0.66667,-5.3333 2.66667,-10.6667 6,-16 L 744,666 c 7.33333,-15.33333 18.83333,-27.33333 34.5,-36 15.66667,-8.66667 32.16667,-13 49.5,-13 8.66667,0 19,1.66667 31,5 l 53,14 c 37.33333,10 90.5,21.83333 159.5,35.5 69,13.66667 134.1667,20.5 195.5,20.5 63.3333,0 153,-8.66667 269,-26 116,-17.33333 216.3333,-26 301,-26 120.6667,0 236.3333,15.5 347,46.5 110.6667,31 184.1667,56.16667 220.5,75.5 36.3333,19.33333 56.5,29 60.5,29 z"
     id="path2"
     inkscape:connector-curvature="0"
     sodipodi:nodetypes="csssccsssssssccsssssccssccssssssc" />
</svg>
